<svg width="179" height="184" viewBox="0 0 179 184" fill="none" xmlns="http://www.w3.org/2000/svg">
<path fill-rule="evenodd" clip-rule="evenodd" d="M84.0711 0C110.722 23.685 112.87 56.003 97.5265 113.412C93.105 129.957 98.4735 153.896 100.77 178.422C103.071 153.842 108.833 130.797 104.014 113.289C88.4028 56.5678 90.1333 25.9025 117.487 0C106.351 3.6127 95.212 3.6174 84.0711 0Z" fill="#00AC4F"/>
<path fill-rule="evenodd" clip-rule="evenodd" d="M17.8001 41.4709C53.3927 39.3738 77.7638 60.7074 107.509 112.151C116.081 126.976 136.805 140.107 155.772 155.827C140.018 136.818 127.797 116.45 112.009 107.477C60.8626 78.4073 40.4025 55.5001 41.4287 17.8423C36.1088 28.2714 28.2358 36.1509 17.8001 41.4709Z" fill="#00AC4F"/>
<path fill-rule="evenodd" clip-rule="evenodd" d="M0 117.529C23.685 90.8785 56.003 88.7307 113.412 104.074C129.956 108.495 153.896 103.126 178.422 100.83C153.842 98.5288 130.797 92.7675 113.289 97.5861C56.5678 113.197 25.9024 111.467 0 84.1133C3.6127 95.2495 3.6174 106.388 0 117.529Z" fill="#00AC4F"/>
<path fill-rule="evenodd" clip-rule="evenodd" d="M41.363 183.87C39.266 148.277 60.5996 123.906 112.043 94.1612C126.868 85.5892 140 64.8656 155.719 45.8989C136.71 61.6523 116.342 73.8735 107.369 89.661C78.2994 140.808 55.3922 161.268 17.7344 160.241C28.1635 165.561 36.043 173.434 41.363 183.87Z" fill="#00AC4F"/>
</svg>
